<?xml version="1.0" encoding="utf-8"?>
<!-- Generator: Adobe Illustrator 20.0.0, SVG Export Plug-In . SVG Version: 6.00 Build 0)  -->
<svg version="1.1" id="Layer_1" xmlns="http://www.w3.org/2000/svg" xmlns:xlink="http://www.w3.org/1999/xlink" x="0px" y="0px"
	 viewBox="0 0 296 28" style="enable-background:new 0 0 296 28;" xml:space="preserve">
<style type="text/css">
	.st0{fill:#FFFFFF;}
</style>
<g>
	<polygon class="st0" points="5,8 10,8 10,21.6 11.8,21.6 11.8,8 16.8,8 16.8,6.4 5,6.4 	"/>
	<path class="st0" d="M37.2,11c0-2.7-2.1-4.5-5.5-4.5h-6.5v15.1h1.7v-5.9h4.3l4.4,5.9h2.1l-4.6-6.2C35.5,15,37.2,13.5,37.2,11z
		 M26.9,14.2V8h4.7c2.4,0,3.9,1.1,3.9,3c0,2-1.6,3.1-3.9,3.1L26.9,14.2L26.9,14.2z"/>
	<path class="st0" d="M51.4,6.2c-4.6,0-7.7,3.7-7.7,7.8c0,4.2,3.1,7.8,7.7,7.8s7.7-3.7,7.7-7.8C59.1,9.8,56,6.2,51.4,6.2z
		 M51.4,20.2c-3.5,0-6-2.8-6-6.3s2.5-6.2,5.9-6.2c3.5,0,6,2.8,6,6.3C57.3,17.5,54.8,20.2,51.4,20.2z"/>
	<path class="st0" d="M71.8,6.4h-5.7v15.1h1.7v-5.3h3.7c3.2,0,5.9-1.7,5.9-5C77.4,8.3,75.2,6.4,71.8,6.4z M71.6,14.7h-3.7V8h3.8
		c2.4,0,4.1,1.1,4.1,3.3C75.7,13.3,74.1,14.7,71.6,14.7z"/>
	<rect x="84.6" y="6.4" class="st0" width="1.7" height="15.1"/>
	<path class="st0" d="M101.1,20.2c-3.3,0-5.9-2.7-5.9-6.3c0-3.5,2.5-6.2,5.9-6.2c2.1,0,3.5,0.9,4.8,2.1l1.2-1.3
		c-1.5-1.4-3.2-2.4-5.9-2.4c-4.5,0-7.6,3.5-7.6,7.8c0,4.4,3.2,7.8,7.6,7.8c2.7,0,4.5-1.1,6-2.7l-1.1-1.1
		C104.6,19.4,103.2,20.2,101.1,20.2z"/>
	<path class="st0" d="M119.2,6.3l-6.9,15.2h1.8l1.8-4h8.2l1.8,4h1.8l-6.9-15.2H119.2z M116.5,16l3.5-7.7l3.4,7.7H116.5z"/>
	<polygon class="st0" points="158.7,19 154.6,6.4 153.2,6.4 149,19 144.7,6.4 142.9,6.4 148.3,21.7 149.7,21.7 153.9,9.4 158,21.7 
		159.5,21.7 164.9,6.4 163.1,6.4 	"/>
	<polygon class="st0" points="173.1,14.7 181.4,14.7 181.4,13.2 173.1,13.2 173.1,8 182.3,8 182.3,6.4 171.4,6.4 171.4,21.6 
		182.4,21.6 182.4,20 173.1,20 	"/>
	<path class="st0" d="M194.6,6.4h-5.3v15.1h5.3c4.8,0,8-3.3,8-7.6C202.6,9.7,199.3,6.4,194.6,6.4z M194.6,20H191V8h3.5
		c3.8,0,6.3,2.6,6.3,6C200.9,17.4,198.4,20,194.6,20z"/>
	<path class="st0" d="M214.9,6.4h-5.2v15.1h5.2c4.8,0,8-3.3,8-7.6C223,9.7,219.7,6.4,214.9,6.4z M214.9,20h-3.5V8h3.5
		c3.8,0,6.3,2.6,6.3,6S218.8,20,214.9,20z"/>
	<rect x="230.2" y="6.4" class="st0" width="1.7" height="15.1"/>
	<polygon class="st0" points="250.9,18.6 241.4,6.4 239.8,6.4 239.8,21.6 241.4,21.6 241.4,9.2 251.2,21.6 252.6,21.6 252.6,6.4 
		250.9,6.4 	"/>
	<path class="st0" d="M267.1,15h4.6v3.8c-1,0.8-2.6,1.5-4.4,1.5c-3.7,0-6-2.7-6-6.3c0-3.4,2.4-6.2,5.7-6.2c2.1,0,3.4,0.7,4.6,1.7
		l1.1-1.3c-1.5-1.3-3.1-2-5.6-2c-4.5,0-7.6,3.7-7.6,7.8c0,4.3,2.9,7.8,7.7,7.8c2.5,0,4.7-1.1,6.1-2.3v-6h-6.2L267.1,15L267.1,15z"/>
	<path class="st0" d="M286.1,13.2c-3.3-0.7-4.1-1.5-4.1-3c0-1.4,1.3-2.5,3.2-2.5c1.6,0,3,0.5,4.4,1.6l1-1.3
		c-1.5-1.2-3.1-1.9-5.3-1.9c-2.9,0-5,1.7-5,4.1c0,2.5,1.6,3.6,5.1,4.4c3.2,0.7,3.9,1.5,3.9,2.9c0,1.5-1.3,2.6-3.4,2.6
		s-3.6-0.7-5.2-2.1l-1.1,1.3c1.8,1.6,3.8,2.4,6.2,2.4c3,0,5.2-1.7,5.2-4.3C291,15.1,289.5,13.9,286.1,13.2z"/>
</g>
</svg>
