<?xml version="1.0" encoding="utf-8"?>
<!-- Generator: Adobe Illustrator 20.0.0, SVG Export Plug-In . SVG Version: 6.00 Build 0)  -->
<svg version="1.1" id="Layer_1" xmlns="http://www.w3.org/2000/svg" xmlns:xlink="http://www.w3.org/1999/xlink" x="0px" y="0px"
	 viewBox="0 0 365 62" style="enable-background:new 0 0 365 62;" xml:space="preserve">
<style type="text/css">
	.st0{fill:#FFFFFF;}
</style>
<g>
	<polygon class="st0" points="74.5,24.9 79.5,24.9 79.5,38.4 81.3,38.4 81.3,24.9 86.3,24.9 86.3,23.3 74.5,23.3 	"/>
	<path class="st0" d="M106.7,27.8c0-2.7-2.1-4.5-5.5-4.5h-6.5v15.1h1.7v-5.9h4.3l4.4,5.9h2.1l-4.6-6.2
		C105,31.8,106.7,30.3,106.7,27.8z M96.4,31v-6.1h4.7c2.4,0,3.9,1.1,3.9,3c0,2-1.6,3.1-3.9,3.1H96.4z"/>
	<path class="st0" d="M120.9,23c-4.6,0-7.7,3.7-7.7,7.8c0,4.2,3.1,7.8,7.7,7.8s7.7-3.7,7.7-7.8C128.5,26.6,125.5,23,120.9,23z
		 M120.9,37.1c-3.5,0-6-2.8-6-6.3s2.5-6.2,5.9-6.2c3.5,0,6,2.8,6,6.3C126.8,34.3,124.3,37.1,120.9,37.1z"/>
	<path class="st0" d="M141.3,23.3h-5.7v15.1h1.7v-5.3h3.7c3.2,0,5.9-1.7,5.9-5C146.9,25.1,144.7,23.3,141.3,23.3z M141.1,31.5h-3.7
		v-6.7h3.8c2.4,0,4.1,1.1,4.1,3.3C145.2,30.2,143.6,31.5,141.1,31.5z"/>
	<rect x="154.1" y="23.3" class="st0" width="1.7" height="15.1"/>
	<path class="st0" d="M170.6,37.1c-3.3,0-5.9-2.7-5.9-6.3c0-3.5,2.5-6.2,5.9-6.2c2.1,0,3.5,0.9,4.8,2.1l1.2-1.3
		c-1.5-1.4-3.2-2.4-5.9-2.4c-4.5,0-7.6,3.5-7.6,7.8c0,4.4,3.2,7.8,7.6,7.8c2.7,0,4.5-1.1,6-2.7l-1.1-1.1
		C174.1,36.3,172.7,37.1,170.6,37.1z"/>
	<path class="st0" d="M188.7,23.2l-6.9,15.2h1.8l1.8-4h8.2l1.8,4h1.8l-6.9-15.2H188.7z M186,32.9l3.5-7.7l3.4,7.7H186z"/>
	<polygon class="st0" points="228.2,35.9 224.1,23.2 222.7,23.2 218.5,35.9 214.2,23.3 212.4,23.3 217.8,38.5 219.2,38.5 
		223.4,26.2 227.5,38.5 229,38.5 234.4,23.3 232.6,23.3 	"/>
	<polygon class="st0" points="242.6,31.6 250.9,31.6 250.9,30 242.6,30 242.6,24.8 251.8,24.8 251.8,23.3 240.9,23.3 240.9,38.4 
		251.9,38.4 251.9,36.9 242.6,36.9 	"/>
	<path class="st0" d="M264.1,23.3h-5.3v15.1h5.3c4.8,0,8-3.3,8-7.6S268.8,23.3,264.1,23.3z M264.1,36.8h-3.5v-12h3.5
		c3.8,0,6.3,2.6,6.3,6C270.3,34.2,267.9,36.8,264.1,36.8z"/>
	<path class="st0" d="M284.4,23.3h-5.2v15.1h5.2c4.8,0,8-3.3,8-7.6C292.5,26.5,289.2,23.3,284.4,23.3z M284.4,36.8h-3.5v-12h3.5
		c3.8,0,6.3,2.6,6.3,6C290.7,34.2,288.3,36.8,284.4,36.8z"/>
	<rect x="299.7" y="23.3" class="st0" width="1.7" height="15.1"/>
	<polygon class="st0" points="320.4,35.4 310.9,23.3 309.3,23.3 309.3,38.4 310.9,38.4 310.9,26 320.7,38.4 322.1,38.4 322.1,23.3 
		320.4,23.3 	"/>
	<path class="st0" d="M336.6,31.9h4.6v3.8c-1,0.8-2.6,1.5-4.4,1.5c-3.7,0-6-2.7-6-6.3c0-3.4,2.4-6.2,5.7-6.2c2.1,0,3.4,0.7,4.6,1.7
		l1.1-1.3c-1.5-1.3-3.1-2-5.6-2c-4.5,0-7.6,3.7-7.6,7.8c0,4.3,2.9,7.8,7.7,7.8c2.5,0,4.7-1.1,6.1-2.3v-6h-6.2L336.6,31.9L336.6,31.9
		z"/>
	<path class="st0" d="M355.6,30c-3.3-0.7-4.1-1.5-4.1-3c0-1.4,1.3-2.5,3.2-2.5c1.6,0,3,0.5,4.4,1.6l1-1.3c-1.5-1.2-3.1-1.9-5.3-1.9
		c-2.9,0-5,1.7-5,4.1c0,2.5,1.6,3.6,5.1,4.4c3.2,0.7,3.9,1.5,3.9,2.9c0,1.5-1.3,2.6-3.4,2.6s-3.6-0.7-5.2-2.1l-1.1,1.3
		c1.8,1.6,3.8,2.4,6.2,2.4c3,0,5.2-1.7,5.2-4.3C360.5,32,359,30.8,355.6,30z"/>
	<polygon class="st0" points="23.1,28 24.6,28 24.6,20 27.6,20 27.6,18.5 20.1,18.5 20.1,20 23.1,20 	"/>
	<path class="st0" d="M31.3,2.5C15.6,2.5,2.8,15.3,2.8,31s12.8,28.5,28.5,28.5S59.7,46.7,59.7,31S47,2.5,31.3,2.5z M31.3,58
		c-14.9,0-27-12.1-27-27s12.1-27,27-27s27,12.1,27,27C58.2,45.9,46.1,58,31.3,58z"/>
	
		<rect x="10.9" y="30.2" transform="matrix(0.7187 -0.6953 0.6953 0.7187 -12.7212 30.4355)" class="st0" width="40.8" height="1.5"/>
	<polygon class="st0" points="43.5,42.4 41.2,35.4 40,35.4 37.7,42.4 35.3,35.4 33.6,35.4 37,45 38.2,45 40.5,38.2 42.8,45 44.1,45 
		47.5,35.4 45.9,35.4 	"/>
</g>
</svg>
