<?xml version="1.0" encoding="utf-8"?>
<!-- Generator: Adobe Illustrator 20.0.0, SVG Export Plug-In . SVG Version: 6.00 Build 0)  -->
<svg version="1.1" id="Layer_1" xmlns="http://www.w3.org/2000/svg" xmlns:xlink="http://www.w3.org/1999/xlink" x="0px" y="0px"
	 viewBox="0 0 62 62" style="enable-background:new 0 0 62 62;" xml:space="preserve">
<style type="text/css">
	.st0{fill:#FFFFFF;}
</style>
<g>
	<polygon class="st0" points="22.8,28 24.3,28 24.3,19.9 27.4,19.9 27.4,18.5 19.8,18.5 19.8,19.9 22.8,19.9 	"/>
	<path class="st0" d="M31,2.5C15.3,2.5,2.5,15.3,2.5,31S15.3,59.5,31,59.5c15.7,0,28.5-12.8,28.5-28.5S46.7,2.5,31,2.5z M31,58
		C16.1,58,4,45.9,4,31C4,16.1,16.1,4,31,4c14.9,0,27,12.1,27,27C58,45.9,45.9,58,31,58z"/>
	
		<rect x="10.6" y="30.2" transform="matrix(0.7187 -0.6953 0.6953 0.7187 -12.8334 30.2702)" class="st0" width="40.8" height="1.5"/>
	<polygon class="st0" points="43.2,42.4 40.9,35.4 39.7,35.4 37.4,42.4 35,35.4 33.4,35.4 36.8,45 38,45 40.3,38.2 42.6,45 43.8,45 
		47.2,35.4 45.6,35.4 	"/>
</g>
</svg>
